<svg width="23" height="23" viewBox="0 0 23 23" fill="none" xmlns="http://www.w3.org/2000/svg">
<path d="M0.5 11.5C0.5 5.42487 5.42487 0.5 11.5 0.5C17.5751 0.5 22.5 5.42487 22.5 11.5C22.5 17.3442 17.9424 22.124 12.1875 22.4789V14.5938H14.5938C15.1633 14.5938 15.625 14.132 15.625 13.5625C15.625 12.993 15.1633 12.5312 14.5938 12.5312H12.1875V9.78125C12.1875 9.60068 12.2231 9.42188 12.2922 9.25506C12.3613 9.08824 12.4625 8.93666 12.5902 8.80898C12.7179 8.6813 12.8695 8.58002 13.0363 8.51092C13.2031 8.44182 13.3819 8.40625 13.5625 8.40625H14.5938C15.1633 8.40625 15.625 7.94454 15.625 7.375C15.625 6.80546 15.1633 6.34375 14.5938 6.34375H13.5625C13.1111 6.34375 12.6641 6.43266 12.247 6.60541C11.83 6.77816 11.451 7.03137 11.1318 7.35057C10.8126 7.66977 10.5594 8.04872 10.3867 8.46578C10.2139 8.88283 10.125 9.32983 10.125 9.78125V12.5312H8.40625C7.83671 12.5312 7.375 12.993 7.375 13.5625C7.375 14.132 7.83671 14.5938 8.40625 14.5938H10.125V22.4149C4.69882 21.7383 0.5 17.1095 0.5 11.5Z" fill="#E3E3E3"/>
</svg>
