<svg width="21" height="21" viewBox="0 0 21 21" fill="none" xmlns="http://www.w3.org/2000/svg">
<path d="M10.3977 7.40794C10.8038 7.39451 11.2085 7.46118 11.5888 7.60417C11.9691 7.74714 12.3175 7.96363 12.6141 8.24125C12.9107 8.51888 13.1497 8.85221 13.3175 9.22221C13.4853 9.59222 13.5786 9.99165 13.5921 10.3977C13.6055 10.8038 13.5388 11.2085 13.3958 11.5888C13.2529 11.9691 13.0364 12.3175 12.7587 12.6141C12.4811 12.9107 12.1478 13.1497 11.7778 13.3175C11.4078 13.4853 11.0083 13.5786 10.6023 13.5921C10.1962 13.6055 9.79151 13.5388 9.41123 13.3958C9.03094 13.2529 8.68254 13.0364 8.38592 12.7587C8.08929 12.4811 7.85026 12.1478 7.68246 11.7778C7.51465 11.4078 7.42138 11.0083 7.40794 10.6023C7.39451 10.1962 7.46118 9.79151 7.60417 9.41123C7.74714 9.03094 7.96363 8.68254 8.24125 8.38592C8.51888 8.08929 8.85221 7.85026 9.22221 7.68246C9.59222 7.51466 9.99165 7.42138 10.3977 7.40794Z" fill="#E3E3E3"/>
<path fill-rule="evenodd" clip-rule="evenodd" d="M12.0787 0.1875H8.92126C7.58961 0.187492 6.52624 0.187485 5.66789 0.258767C4.78742 0.331886 4.03069 0.485309 3.33743 0.845429C2.27011 1.39986 1.39986 2.27011 0.845429 3.33743C0.485309 4.03069 0.331886 4.78742 0.258767 5.66789C0.187485 6.52624 0.187492 7.58958 0.1875 8.92124V12.0787C0.187492 13.4104 0.187484 14.4738 0.258767 15.3321C0.331886 16.2126 0.485309 16.9693 0.845429 17.6626C1.39986 18.7299 2.27011 19.6001 3.33743 20.1546C4.03069 20.5147 4.78742 20.6681 5.66789 20.7412C6.52622 20.8125 7.58955 20.8125 8.92118 20.8125H12.0787C13.4104 20.8125 14.4738 20.8125 15.3321 20.7412C16.2126 20.6681 16.9693 20.5147 17.6626 20.1546C18.7299 19.6001 19.6001 18.7299 20.1546 17.6626C20.5147 16.9693 20.6681 16.2126 20.7412 15.3321C20.8125 14.4738 20.8125 13.4105 20.8125 12.0788V8.92126C20.8125 7.58964 20.8125 6.52622 20.7412 5.66789C20.6681 4.78742 20.5147 4.03069 20.1546 3.33743C19.6001 2.27011 18.7299 1.39986 17.6626 0.845429C16.9693 0.485309 16.2126 0.331886 15.3321 0.258767C14.4738 0.187484 13.4104 0.187492 12.0787 0.1875ZM12.3146 5.67361C11.6808 5.43531 11.0063 5.32418 10.3295 5.34657C9.65275 5.36896 8.98703 5.52443 8.37036 5.80409C7.75368 6.08376 7.19813 6.48216 6.73542 6.97653C6.27271 7.4709 5.91191 8.05157 5.67361 8.68538C5.43531 9.31919 5.32418 9.99373 5.34657 10.6705C5.36896 11.3472 5.52442 12.013 5.80409 12.6296C6.08376 13.2463 6.48215 13.8019 6.97653 14.2646C7.4709 14.7273 8.05157 15.0881 8.68538 15.3264C9.31919 15.5647 9.99373 15.6758 10.6705 15.6534C11.3472 15.631 12.013 15.4756 12.6296 15.1959C13.2463 14.9162 13.8019 14.5178 14.2646 14.0235C14.7273 13.5291 15.0881 12.9484 15.3264 12.3146C15.5647 11.6808 15.6758 11.0063 15.6534 10.3295C15.631 9.65275 15.4756 8.98703 15.1959 8.37036C14.9162 7.75368 14.5178 7.19813 14.0235 6.73542C13.5291 6.27271 12.9484 5.91191 12.3146 5.67361ZM15.6562 4.3125C16.2258 4.3125 16.6875 4.77421 16.6875 5.34375C16.6875 5.91329 16.2258 6.375 15.6562 6.375H15.6425C15.073 6.375 14.6112 5.91329 14.6112 5.34375C14.6112 4.77421 15.073 4.3125 15.6425 4.3125H15.6562Z" fill="#E3E3E3"/>
</svg>
