<svg width="20" height="21" viewBox="0 0 20 21" fill="none" xmlns="http://www.w3.org/2000/svg">
<path d="M7.43746 17.3969C9.10099 17.3969 10.4495 16.2059 10.4495 14.3848V0.875H14.0619C13.8593 3.33881 16.3085 5.71879 19.0097 5.66436V9.06118C16.6996 9.06118 14.7353 8.08441 14.0516 7.54234V14.3848C14.0516 17.3969 11.6821 20.8125 7.43746 20.8125C3.19285 20.8125 0.875 17.3969 0.875 14.3848C0.875 10.1335 5.37394 7.66791 8.35369 8.27053V11.7304C8.20379 11.6774 7.81722 11.599 7.48796 11.599C5.8106 11.5371 4.42537 12.8976 4.42537 14.3848C4.42537 16.0483 5.77393 17.3969 7.43746 17.3969Z" fill="#E3E3E3"/>
</svg>
