<svg width="19" height="18" viewBox="0 0 19 18" fill="none" xmlns="http://www.w3.org/2000/svg">
<path d="M14.296 0.788818C11.8878 0.788818 9.93516 2.74143 9.93516 5.14961V5.91916C4.8561 5.64671 2.78228 2.77226 2.18206 1.70115C2.08654 1.5307 1.84333 1.51009 1.75246 1.68306C1.52576 2.11454 1.21357 2.88672 1.21357 3.86703C1.21357 6.4322 3.26571 7.45827 3.26571 7.45827C2.31149 7.45827 1.55446 7.26107 1.11691 7.11119C0.931599 7.04771 0.737291 7.19481 0.78693 7.3843C1.00804 8.2283 1.76917 10.0793 4.29178 11.0495L2.5598 11.4825C2.39908 11.5227 2.32655 11.701 2.42904 11.8312C2.84651 12.3614 4.00057 13.5419 6.34392 14.1277C6.34392 14.1277 4.70056 15.5363 0.740093 15.6584C0.525405 15.665 0.428195 15.8995 0.598908 16.0299C1.37073 16.6192 3.28902 17.719 6.85695 17.719C15.322 17.719 18.6567 9.76692 18.6567 5.14961C18.6567 2.74143 16.7041 0.788818 14.296 0.788818Z" fill="#E3E3E3" stroke="#160042" stroke-width="0.5" stroke-miterlimit="10" stroke-linejoin="round"/>
</svg>
