<svg width="21" height="21" viewBox="0 0 21 21" fill="none" xmlns="http://www.w3.org/2000/svg">
<path d="M11.8601 0.624288C9.47523 0.296224 7.0522 0.842122 5.03841 2.16118C3.02463 3.48024 1.55611 5.48338 0.904011 7.8007C0.251913 10.118 0.460282 12.593 1.49064 14.7687C2.521 16.9444 4.30376 18.6738 6.50974 19.6376C6.45008 18.872 6.50484 18.1017 6.6722 17.3522C6.8566 16.5159 7.96395 11.9071 7.96395 11.9071C7.74344 11.4128 7.63324 10.8765 7.64101 10.3353C7.64101 8.85516 8.4952 7.7508 9.55769 7.7508C9.74857 7.74802 9.93781 7.78638 10.1125 7.86326C10.2873 7.94015 10.4434 8.05375 10.5703 8.19636C10.6972 8.33896 10.7919 8.50722 10.848 8.6897C10.9041 8.87218 10.9202 9.06459 10.8953 9.25385C10.8953 10.1509 10.3192 11.5084 10.0182 12.7822C9.95869 13.0158 9.95492 13.2602 10.0072 13.4955C10.0594 13.7308 10.1662 13.9506 10.3189 14.1371C10.4717 14.3236 10.6661 14.4716 10.8865 14.5692C11.107 14.6668 11.3473 14.7112 11.588 14.6989C13.4798 14.6989 14.7476 12.2759 14.7476 9.41532C14.7476 7.22254 13.2954 5.57996 10.6182 5.57996C9.97768 5.55507 9.33879 5.66061 8.74032 5.89019C8.14184 6.11976 7.59627 6.46857 7.13672 6.91544C6.67717 7.36231 6.31324 7.89792 6.06702 8.48974C5.8208 9.08156 5.69743 9.71725 5.70439 10.3582C5.67585 11.0692 5.90523 11.7665 6.35026 12.3217C6.43342 12.3838 6.49414 12.4712 6.52327 12.5708C6.55239 12.6705 6.54834 12.7768 6.51173 12.8739C6.46588 13.0573 6.35026 13.4949 6.30441 13.6553C6.29488 13.7098 6.27269 13.7612 6.23965 13.8055C6.20661 13.8497 6.16363 13.8856 6.11417 13.9103C6.06472 13.9349 6.01017 13.9476 5.95492 13.9473C5.89967 13.947 5.84527 13.9337 5.79609 13.9085C4.41664 13.3563 3.76678 11.8383 3.76678 10.105C3.76678 7.2674 6.14295 3.87059 10.8973 3.87059C14.6808 3.87059 17.1965 6.63847 17.1965 9.59871C17.1965 13.4949 15.0267 16.4242 11.8202 16.4242C11.341 16.4395 10.8656 16.3338 10.4381 16.1167C10.0106 15.8996 9.64471 15.5783 9.3743 15.1823C9.3743 15.1823 8.7982 17.4907 8.68457 17.9273C8.45263 18.6815 8.11037 19.3972 7.66892 20.0513C8.58889 20.3303 9.54474 20.4699 10.5056 20.4659C11.8148 20.467 13.1114 20.2097 14.3212 19.709C15.5309 19.2082 16.6299 18.4737 17.5554 17.5476C18.4809 16.6215 19.2146 15.5219 19.7145 14.3119C20.2144 13.1018 20.4707 11.805 20.4687 10.4958C20.4675 8.08869 19.5954 5.76335 18.0135 3.94911C16.4315 2.13487 14.2466 0.954265 11.8621 0.625285L11.8601 0.624288Z" fill="#E3E3E3"/>
</svg>
